<svg xmlns="http://www.w3.org/2000/svg" viewBox="0 0 760 340" width="760" height="340" font-family="Georgia,'Times New Roman',serif">
  <rect width="760" height="340" fill="#ffffff"/>
  <text x="56" y="15" font-size="11" fill="#667">Real monthly wage, 10,000 won (deflated, 2020=100) · full calendar years</text>
  <line x1="56" y1="296.0" x2="740" y2="296.0" stroke="#ececea"/><text x="48" y="299.0" text-anchor="end" font-size="10" fill="#889">285</text><line x1="56" y1="158.4" x2="740" y2="158.4" stroke="#ececea"/><text x="48" y="161.4" text-anchor="end" font-size="10" fill="#889">328</text><line x1="56" y1="24.0" x2="740" y2="24.0" stroke="#ececea"/><text x="48" y="27.0" text-anchor="end" font-size="10" fill="#889">370</text>
  <polyline points="56.0,279.7 104.9,251.8 153.7,232.0 202.6,221.1 251.4,199.0 300.3,170.2 349.1,157.1 398.0,117.4 446.9,84.8 495.7,79.7 544.6,56.3 593.4,57.6 642.3,70.4 691.1,64.6 740.0,53.8" fill="none" stroke="#2b4a6f" stroke-width="2"/>
  <circle cx="56.0" cy="279.7" r="2.6" fill="#2b4a6f"/><circle cx="104.9" cy="251.8" r="2.6" fill="#2b4a6f"/><circle cx="153.7" cy="232.0" r="2.6" fill="#2b4a6f"/><circle cx="202.6" cy="221.1" r="2.6" fill="#2b4a6f"/><circle cx="251.4" cy="199.0" r="2.6" fill="#2b4a6f"/><circle cx="300.3" cy="170.2" r="2.6" fill="#2b4a6f"/><circle cx="349.1" cy="157.1" r="2.6" fill="#2b4a6f"/><circle cx="398.0" cy="117.4" r="2.6" fill="#2b4a6f"/><circle cx="446.9" cy="84.8" r="2.6" fill="#2b4a6f"/><circle cx="495.7" cy="79.7" r="2.6" fill="#2b4a6f"/><circle cx="544.6" cy="56.3" r="2.6" fill="#2b4a6f"/><circle cx="593.4" cy="57.6" r="2.6" fill="#2b4a6f"/><circle cx="642.3" cy="70.4" r="2.6" fill="#2b4a6f"/><circle cx="691.1" cy="64.6" r="2.6" fill="#2b4a6f"/><circle cx="740.0" cy="53.8" r="2.6" fill="#2b4a6f"/><text x="56.0" y="312" text-anchor="middle" font-size="10" fill="#667">2011</text><text x="153.7" y="312" text-anchor="middle" font-size="10" fill="#667">2013</text><text x="251.4" y="312" text-anchor="middle" font-size="10" fill="#667">2015</text><text x="349.1" y="312" text-anchor="middle" font-size="10" fill="#667">2017</text><text x="446.9" y="312" text-anchor="middle" font-size="10" fill="#667">2019</text><text x="544.6" y="312" text-anchor="middle" font-size="10" fill="#667">2021</text><text x="642.3" y="312" text-anchor="middle" font-size="10" fill="#667">2023</text><text x="740.0" y="312" text-anchor="middle" font-size="10" fill="#667">2025</text>
</svg>