<svg xmlns="http://www.w3.org/2000/svg" viewBox="0 0 768 430" font-family="Georgia,'Times New Roman',serif" role="img" aria-label="Korea's 10 largest listed companies by share of total market value, preferred shares consolidated">
<rect width="768" height="430" fill="#ffffff"/><text x="20" y="26" font-size="16" font-weight="700" fill="#0f172a">Korea's 10 largest listed companies</text>
<text x="20" y="42" font-size="12" fill="#64748b">Share of total KOSPI+KOSDAQ market value · company level (preferred shares merged) · 20260821</text><rect x="200" y="58.6" width="512.0" height="21.575999999999997" fill="#1d4ed8" rx="2"/><text x="190" y="73.4" text-anchor="end" font-size="12.5" fill="#0f172a">1. Samsung Electronics</text><text x="718.0" y="73.4" font-size="12" font-weight="700" fill="#1d4ed8">29.4%</text><rect x="200" y="93.4" width="357.0" height="21.575999999999997" fill="#1d4ed8" rx="2"/><text x="190" y="108.2" text-anchor="end" font-size="12.5" fill="#0f172a">2. SK hynix</text><text x="563.0" y="108.2" font-size="12" font-weight="700" fill="#1d4ed8">20.5%</text><rect x="200" y="128.2" width="41.8" height="21.575999999999997" fill="#1d4ed8" rx="2"/><text x="190" y="143.0" text-anchor="end" font-size="12.5" fill="#0f172a">3. SK Square</text><text x="247.8" y="143.0" font-size="12" font-weight="700" fill="#1d4ed8">2.4%</text><rect x="200" y="163.0" width="27.9" height="21.575999999999997" fill="#1d4ed8" rx="2"/><text x="190" y="177.8" text-anchor="end" font-size="12.5" fill="#0f172a">4. Samsung Electro-Mechanics</text><text x="233.9" y="177.8" font-size="12" font-weight="700" fill="#1d4ed8">1.6%</text><rect x="200" y="197.8" width="26.1" height="21.575999999999997" fill="#1d4ed8" rx="2"/><text x="190" y="212.6" text-anchor="end" font-size="12.5" fill="#0f172a">5. Hyundai Motor</text><text x="232.1" y="212.6" font-size="12" font-weight="700" fill="#1d4ed8">1.5%</text><rect x="200" y="232.6" width="22.6" height="21.575999999999997" fill="#1d4ed8" rx="2"/><text x="190" y="247.4" text-anchor="end" font-size="12.5" fill="#0f172a">6. LG Energy Solution</text><text x="228.6" y="247.4" font-size="12" font-weight="700" fill="#1d4ed8">1.3%</text><rect x="200" y="267.4" width="20.9" height="21.575999999999997" fill="#1d4ed8" rx="2"/><text x="190" y="282.2" text-anchor="end" font-size="12.5" fill="#0f172a">7. Samsung Biologics</text><text x="226.9" y="282.2" font-size="12" font-weight="700" fill="#1d4ed8">1.2%</text><rect x="200" y="302.2" width="19.2" height="21.575999999999997" fill="#1d4ed8" rx="2"/><text x="190" y="317.0" text-anchor="end" font-size="12.5" fill="#0f172a">8. Samsung Life Insurance</text><text x="225.2" y="317.0" font-size="12" font-weight="700" fill="#1d4ed8">1.1%</text><rect x="200" y="337.0" width="17.4" height="21.575999999999997" fill="#1d4ed8" rx="2"/><text x="190" y="351.8" text-anchor="end" font-size="12.5" fill="#0f172a">9. Samsung C&amp;T</text><text x="223.4" y="351.8" font-size="12" font-weight="700" fill="#1d4ed8">1%</text><rect x="200" y="371.8" width="15.7" height="21.575999999999997" fill="#1d4ed8" rx="2"/><text x="190" y="386.6" text-anchor="end" font-size="12.5" fill="#0f172a">10. KB Financial</text><text x="221.7" y="386.6" font-size="12" font-weight="700" fill="#1d4ed8">0.9%</text>
<text x="712" y="424" text-anchor="end" font-size="10" fill="#64748b">Source: Korea Exchange OPEN API</text></svg>