<svg xmlns="http://www.w3.org/2000/svg" viewBox="0 0 768 400" font-family="Georgia,'Times New Roman',serif" role="img" aria-label="Top 10 Korean stocks by share of total market capitalisation">
<rect width="768" height="400" fill="#ffffff"/><text x="20" y="26" font-size="16" font-weight="700" fill="#0f172a">One stock is a quarter of the whole market</text>
<text x="20" y="42" font-size="12" fill="#64748b">Share of total KOSPI+KOSDAQ market cap, top 10 · as of 20260907</text><rect x="210" y="58.0" width="502.0" height="19.716" fill="#1d4ed8" rx="2"/><text x="200" y="71.9" text-anchor="end" font-size="12.5" fill="#0f172a">Samsung Electronics</text><text x="718.0" y="71.9" font-size="12" font-weight="700" fill="#1d4ed8">25.3%</text><rect x="210" y="89.8" width="414.7" height="19.716" fill="#1d4ed8" rx="2"/><text x="200" y="103.7" text-anchor="end" font-size="12.5" fill="#0f172a">SK hynix</text><text x="630.7" y="103.7" font-size="12" font-weight="700" fill="#1d4ed8">20.9%</text><rect x="210" y="121.6" width="51.6" height="19.716" fill="#1d4ed8" rx="2"/><text x="200" y="135.5" text-anchor="end" font-size="12.5" fill="#0f172a">Samsung Elec. (pref)</text><text x="267.6" y="135.5" font-size="12" font-weight="700" fill="#1d4ed8">2.6%</text><rect x="210" y="153.4" width="47.6" height="19.716" fill="#1d4ed8" rx="2"/><text x="200" y="167.3" text-anchor="end" font-size="12.5" fill="#0f172a">SK Square</text><text x="263.6" y="167.3" font-size="12" font-weight="700" fill="#1d4ed8">2.4%</text><rect x="210" y="185.2" width="33.7" height="19.716" fill="#1d4ed8" rx="2"/><text x="200" y="199.1" text-anchor="end" font-size="12.5" fill="#0f172a">Samsung Electro-Mech.</text><text x="249.7" y="199.1" font-size="12" font-weight="700" fill="#1d4ed8">1.7%</text><rect x="210" y="217.0" width="27.8" height="19.716" fill="#1d4ed8" rx="2"/><text x="200" y="230.9" text-anchor="end" font-size="12.5" fill="#0f172a">LG Energy Solution</text><text x="243.8" y="230.9" font-size="12" font-weight="700" fill="#1d4ed8">1.4%</text><rect x="210" y="248.8" width="25.8" height="19.716" fill="#1d4ed8" rx="2"/><text x="200" y="262.7" text-anchor="end" font-size="12.5" fill="#0f172a">Hyundai Motor</text><text x="241.8" y="262.7" font-size="12" font-weight="700" fill="#1d4ed8">1.3%</text><rect x="210" y="280.6" width="21.8" height="19.716" fill="#1d4ed8" rx="2"/><text x="200" y="294.5" text-anchor="end" font-size="12.5" fill="#0f172a">Samsung Biologics</text><text x="237.8" y="294.5" font-size="12" font-weight="700" fill="#1d4ed8">1.1%</text><rect x="210" y="312.4" width="19.8" height="19.716" fill="#1d4ed8" rx="2"/><text x="200" y="326.3" text-anchor="end" font-size="12.5" fill="#0f172a">Samsung Life</text><text x="235.8" y="326.3" font-size="12" font-weight="700" fill="#1d4ed8">1%</text><rect x="210" y="344.2" width="19.8" height="19.716" fill="#1d4ed8" rx="2"/><text x="200" y="358.1" text-anchor="end" font-size="12.5" fill="#0f172a">KB Financial</text><text x="235.8" y="358.1" font-size="12" font-weight="700" fill="#1d4ed8">1%</text>
<text x="712" y="394" text-anchor="end" font-size="10" fill="#64748b">Source: Korea Exchange OPEN API (daily trading)</text></svg>