<svg xmlns="http://www.w3.org/2000/svg" viewBox="0 0 768 400" font-family="Georgia,'Times New Roman',serif" role="img" aria-label="Cumulative share of Korean market cap by number of stocks: 4 stocks are half, 57 are 80 percent">
<rect width="768" height="400" fill="#ffffff"/><text x="54" y="24" font-size="16" font-weight="700" fill="#0f172a">Four stocks are half the market; the other 2,760 share the rest</text>
<text x="54" y="40" font-size="12" fill="#64748b">Cumulative % of total market cap vs number of stocks (log scale)</text><line x1="54" y1="346" x2="738" y2="346" stroke="#e2e8f0"/><text x="46" y="350" text-anchor="end" font-size="12" fill="#64748b">0%</text><line x1="54" y1="286.8" x2="738" y2="286.8" stroke="#e2e8f0"/><text x="46" y="290.8" text-anchor="end" font-size="12" fill="#64748b">20%</text><line x1="54" y1="227.6" x2="738" y2="227.6" stroke="#e2e8f0"/><text x="46" y="231.6" text-anchor="end" font-size="12" fill="#64748b">40%</text><line x1="54" y1="168.4" x2="738" y2="168.4" stroke="#e2e8f0"/><text x="46" y="172.4" text-anchor="end" font-size="12" fill="#64748b">60%</text><line x1="54" y1="109.19999999999999" x2="738" y2="109.19999999999999" stroke="#e2e8f0"/><text x="46" y="113.19999999999999" text-anchor="end" font-size="12" fill="#64748b">80%</text><line x1="54" y1="50" x2="738" y2="50" stroke="#e2e8f0"/><text x="46" y="54" text-anchor="end" font-size="12" fill="#64748b">100%</text><text x="54.0" y="368" text-anchor="middle" font-size="11" fill="#64748b">1</text><text x="252.7" y="368" text-anchor="middle" font-size="11" fill="#64748b">10</text><text x="451.5" y="368" text-anchor="middle" font-size="11" fill="#64748b">100</text><text x="650.2" y="368" text-anchor="middle" font-size="11" fill="#64748b">1000</text>
<polyline points="54.0,267.0 173.7,190.9 252.7,168.7 347.6,131.7 403.0,108.9 451.5,91.4 546.3,68.1 650.2,55.0 738.0,50.0" fill="none" stroke="#1d4ed8" stroke-width="2.5"/><circle cx="54.0" cy="267.0" r="3" fill="#1d4ed8"/><circle cx="173.7" cy="190.9" r="3" fill="#1d4ed8"/><text x="173.7" y="181.9" text-anchor="middle" font-size="11.5" font-weight="700" fill="#1d4ed8">4 stocks = 52%</text><circle cx="252.7" cy="168.7" r="3" fill="#1d4ed8"/><circle cx="347.6" cy="131.7" r="3" fill="#1d4ed8"/><circle cx="403.0" cy="108.9" r="3" fill="#1d4ed8"/><text x="403.0" y="99.9" text-anchor="middle" font-size="11.5" font-weight="700" fill="#1d4ed8">57 = 80%</text><circle cx="451.5" cy="91.4" r="3" fill="#1d4ed8"/><circle cx="546.3" cy="68.1" r="3" fill="#1d4ed8"/><circle cx="650.2" cy="55.0" r="3" fill="#1d4ed8"/><circle cx="738.0" cy="50.0" r="3" fill="#1d4ed8"/><text x="730.0" y="66.0" text-anchor="end" font-size="11" font-weight="700" fill="#1d4ed8">all 2764 = 100%</text>
<text x="396" y="392" text-anchor="middle" font-size="11" fill="#64748b">number of stocks (largest first)</text>
<text x="738" y="392" text-anchor="end" font-size="10" fill="#64748b">Source: KRX OPEN API · 20260821</text></svg>