<svg xmlns="http://www.w3.org/2000/svg" viewBox="0 0 768 400" font-family="Georgia,'Times New Roman',serif" role="img" aria-label="Fixed-rate share of Korean bank loans by borrower type, falling from Jul 2025 to Jun 2026">
<rect width="768" height="400" fill="#ffffff"/>
<text x="46" y="24" font-size="16" font-weight="700" fill="#0f172a">The fixed-rate share fell for every kind of Korean borrower</text>
<text x="46" y="40" font-size="12" fill="#64748b">% of outstanding won bank loans on a fixed rate</text>
<line x1="46" y1="354" x2="636" y2="354" stroke="#e2e8f0"/><text x="38" y="358" text-anchor="end" font-size="12" fill="#64748b">30</text><line x1="46" y1="315.75" x2="636" y2="315.75" stroke="#e2e8f0"/><text x="38" y="319.75" text-anchor="end" font-size="12" fill="#64748b">35</text><line x1="46" y1="277.5" x2="636" y2="277.5" stroke="#e2e8f0"/><text x="38" y="281.5" text-anchor="end" font-size="12" fill="#64748b">40</text><line x1="46" y1="239.25" x2="636" y2="239.25" stroke="#e2e8f0"/><text x="38" y="243.25" text-anchor="end" font-size="12" fill="#64748b">45</text><line x1="46" y1="201" x2="636" y2="201" stroke="#e2e8f0"/><text x="38" y="205" text-anchor="end" font-size="12" fill="#64748b">50</text><line x1="46" y1="162.75" x2="636" y2="162.75" stroke="#e2e8f0"/><text x="38" y="166.75" text-anchor="end" font-size="12" fill="#64748b">55</text><line x1="46" y1="124.5" x2="636" y2="124.5" stroke="#e2e8f0"/><text x="38" y="128.5" text-anchor="end" font-size="12" fill="#64748b">60</text><line x1="46" y1="86.25" x2="636" y2="86.25" stroke="#e2e8f0"/><text x="38" y="90.25" text-anchor="end" font-size="12" fill="#64748b">65</text><line x1="46" y1="48" x2="636" y2="48" stroke="#e2e8f0"/><text x="38" y="52" text-anchor="end" font-size="12" fill="#64748b">70</text><polyline points="46.0,283.6 99.6,285.1 153.3,287.4 206.9,289.7 260.5,292.0 314.2,294.3 367.8,295.9 421.5,298.9 475.1,305.8 528.7,314.2 582.4,328.0 636.0,343.3" fill="none" stroke="#1d4ed8" stroke-width="2.5"/><polyline points="46.0,224.7 99.6,223.9 153.3,223.9 206.9,224.7 260.5,224.7 314.2,225.5 367.8,227.0 421.5,228.5 475.1,231.6 528.7,235.4 582.4,240.8 636.0,247.7" fill="none" stroke="#16a34a" stroke-width="2.5"/><polyline points="46.0,78.6 99.6,80.1 153.3,81.7 206.9,81.7 260.5,80.9 314.2,81.7 367.8,83.2 421.5,83.2 475.1,86.3 528.7,90.8 582.4,94.7 636.0,100.8" fill="none" stroke="#b4472a" stroke-width="2.5"/><text x="642" y="347.29" font-size="12.5" font-weight="700" fill="#1d4ed8">Corporate 31.4%</text><text x="642" y="251.66500000000002" font-size="12.5" font-weight="700" fill="#16a34a">Household 43.9%</text><text x="642" y="104.785" font-size="12.5" font-weight="700" fill="#b4472a">Mortgage 63.1%</text><text x="46.0" y="372" text-anchor="middle" font-size="11" fill="#64748b">Jul '25</text><text x="153.3" y="372" text-anchor="middle" font-size="11" fill="#64748b">Sep '25</text><text x="260.5" y="372" text-anchor="middle" font-size="11" fill="#64748b">Nov '25</text><text x="367.8" y="372" text-anchor="middle" font-size="11" fill="#64748b">Jan '26</text><text x="475.1" y="372" text-anchor="middle" font-size="11" fill="#64748b">Mar '26</text><text x="582.4" y="372" text-anchor="middle" font-size="11" fill="#64748b">May '26</text>
<text x="762" y="394" text-anchor="end" font-size="10" fill="#64748b">Source: Bank of Korea via KOSIS (301/DT_121Y011)</text>
</svg>