<svg xmlns="http://www.w3.org/2000/svg" viewBox="0 0 768 400" font-family="Georgia,'Times New Roman',serif" role="img" aria-label="Cumulative share of Korea's trade by number of partners: four partners are half of both exports and imports">
<rect width="768" height="400" fill="#ffffff"/><text x="54" y="24" font-size="16" font-weight="700" fill="#0f172a">Four partners are half of Korea's trade — either way</text>
<text x="54" y="40" font-size="12" fill="#64748b">Cumulative % of trade vs number of partners (log scale) · 2026-06</text><line x1="54" y1="346" x2="734" y2="346" stroke="#e2e8f0"/><text x="46" y="350" text-anchor="end" font-size="12" fill="#64748b">0%</text><line x1="54" y1="287.20000000000005" x2="734" y2="287.20000000000005" stroke="#e2e8f0"/><text x="46" y="291.20000000000005" text-anchor="end" font-size="12" fill="#64748b">20%</text><line x1="54" y1="228.4" x2="734" y2="228.4" stroke="#e2e8f0"/><text x="46" y="232.4" text-anchor="end" font-size="12" fill="#64748b">40%</text><line x1="54" y1="169.60000000000002" x2="734" y2="169.60000000000002" stroke="#e2e8f0"/><text x="46" y="173.60000000000002" text-anchor="end" font-size="12" fill="#64748b">60%</text><line x1="54" y1="110.79999999999998" x2="734" y2="110.79999999999998" stroke="#e2e8f0"/><text x="46" y="114.79999999999998" text-anchor="end" font-size="12" fill="#64748b">80%</text><line x1="54" y1="52" x2="734" y2="52" stroke="#e2e8f0"/><text x="46" y="56" text-anchor="end" font-size="12" fill="#64748b">100%</text><text x="54.0" y="368" text-anchor="middle" font-size="11" fill="#64748b">1</text><text x="192.3" y="368" text-anchor="middle" font-size="11" fill="#64748b">3</text><text x="343.8" y="368" text-anchor="middle" font-size="11" fill="#64748b">10</text><text x="546.4" y="368" text-anchor="middle" font-size="11" fill="#64748b">50</text><text x="734.0" y="368" text-anchor="middle" font-size="11" fill="#64748b">222</text><rect x="94" y="58" width="12" height="12" fill="#1d4ed8"/><text x="111" y="68" font-size="12" fill="#0f172a">exports</text><rect x="184" y="58" width="12" height="12" fill="#f59e0b"/><text x="201" y="68" font-size="12" fill="#0f172a">imports</text>
<polyline points="54.0,288.4 141.2,230.8 192.3,204.6 256.6,155.8 343.8,119.3 431.1,85.8 546.4,59.4 734.0,52.0" fill="none" stroke="#1d4ed8" stroke-width="2.5"/><circle cx="54.0" cy="288.4" r="2.6" fill="#1d4ed8"/><circle cx="141.2" cy="230.8" r="2.6" fill="#1d4ed8"/><circle cx="192.3" cy="204.6" r="2.6" fill="#1d4ed8"/><circle cx="256.6" cy="155.8" r="2.6" fill="#1d4ed8"/><circle cx="343.8" cy="119.3" r="2.6" fill="#1d4ed8"/><circle cx="431.1" cy="85.8" r="2.6" fill="#1d4ed8"/><circle cx="546.4" cy="59.4" r="2.6" fill="#1d4ed8"/><circle cx="734.0" cy="52.0" r="2.6" fill="#1d4ed8"/><polyline points="54.0,272.8 141.2,237.8 192.3,215.5 256.6,184.9 343.8,134.6 431.1,92.3 546.4,57.9 717.7,52.0" fill="none" stroke="#f59e0b" stroke-width="2.5"/><circle cx="54.0" cy="272.8" r="2.6" fill="#f59e0b"/><circle cx="141.2" cy="237.8" r="2.6" fill="#f59e0b"/><circle cx="192.3" cy="215.5" r="2.6" fill="#f59e0b"/><circle cx="256.6" cy="184.9" r="2.6" fill="#f59e0b"/><circle cx="343.8" cy="134.6" r="2.6" fill="#f59e0b"/><circle cx="431.1" cy="92.3" r="2.6" fill="#f59e0b"/><circle cx="546.4" cy="57.9" r="2.6" fill="#f59e0b"/><circle cx="717.7" cy="52.0" r="2.6" fill="#f59e0b"/>
<text x="394" y="392" text-anchor="middle" font-size="11" fill="#64748b">number of partner countries (largest first)</text>
<text x="734" y="392" text-anchor="end" font-size="10" fill="#64748b">Source: Korea Customs Service (via KOSIS)</text></svg>