<svg xmlns="http://www.w3.org/2000/svg" viewBox="0 0 768 420" font-family="Georgia,'Times New Roman',serif" role="img" aria-label="Korea's top trading partners by share of exports versus share of imports, 2026-06">
<rect width="768" height="420" fill="#ffffff"/><text x="120" y="26" font-size="16" font-weight="700" fill="#0f172a">Korea sells to two giants, but buys mostly from one</text>
<text x="728" y="26" text-anchor="end" font-size="10" fill="#64748b">Source: Korea Customs Service · 2026-06</text>
<rect x="120" y="48" width="12" height="12" fill="#1d4ed8"/><text x="137" y="58" font-size="12" fill="#0f172a">share of exports</text><rect x="270" y="48" width="12" height="12" fill="#f59e0b"/><text x="287" y="58" font-size="12" fill="#0f172a">share of imports</text><text x="110" y="93.1" text-anchor="end" font-size="12.5" fill="#0f172a">China</text><rect x="120" y="73.3" width="427.3" height="14.811428571428571" fill="#1d4ed8"/><text x="552.3" y="87.1" font-size="11" font-weight="700" fill="#1d4ed8">19.6%</text><rect x="120" y="90.1" width="542.9" height="14.811428571428571" fill="#f59e0b"/><text x="667.9" y="104.0" font-size="11" font-weight="700" fill="#f59e0b">24.9%</text><text x="110" y="139.4" text-anchor="end" font-size="12.5" fill="#0f172a">United States</text><rect x="120" y="119.6" width="427.3" height="14.811428571428571" fill="#1d4ed8"/><text x="552.3" y="133.4" font-size="11" font-weight="700" fill="#1d4ed8">19.6%</text><rect x="120" y="136.4" width="261.6" height="14.811428571428571" fill="#f59e0b"/><text x="386.6" y="150.2" font-size="11" font-weight="700" fill="#f59e0b">12%</text><text x="110" y="185.7" text-anchor="end" font-size="12.5" fill="#0f172a">Taiwan</text><rect x="120" y="165.9" width="178.8" height="14.811428571428571" fill="#1d4ed8"/><text x="303.8" y="179.7" font-size="11" font-weight="700" fill="#1d4ed8">8.2%</text><rect x="120" y="182.7" width="124.3" height="14.811428571428571" fill="#f59e0b"/><text x="249.3" y="196.5" font-size="11" font-weight="700" fill="#f59e0b">5.7%</text><text x="110" y="232.0" text-anchor="end" font-size="12.5" fill="#0f172a">Vietnam</text><rect x="120" y="212.2" width="183.1" height="14.811428571428571" fill="#1d4ed8"/><text x="308.1" y="226.0" font-size="11" font-weight="700" fill="#1d4ed8">8.4%</text><rect x="120" y="229.0" width="104.6" height="14.811428571428571" fill="#f59e0b"/><text x="229.6" y="242.8" font-size="11" font-weight="700" fill="#f59e0b">4.8%</text><text x="110" y="278.3" text-anchor="end" font-size="12.5" fill="#0f172a">Japan</text><rect x="120" y="258.5" width="61.0" height="14.811428571428571" fill="#1d4ed8"/><text x="186.0" y="272.3" font-size="11" font-weight="700" fill="#1d4ed8">2.8%</text><rect x="120" y="275.3" width="165.7" height="14.811428571428571" fill="#f59e0b"/><text x="290.7" y="289.1" font-size="11" font-weight="700" fill="#f59e0b">7.6%</text><text x="110" y="324.6" text-anchor="end" font-size="12.5" fill="#0f172a">Hong Kong</text><rect x="120" y="304.8" width="194.0" height="14.811428571428571" fill="#1d4ed8"/><text x="319.0" y="318.6" font-size="11" font-weight="700" fill="#1d4ed8">8.9%</text><rect x="120" y="321.6" width="6.5" height="14.811428571428571" fill="#f59e0b"/><text x="131.5" y="335.4" font-size="11" font-weight="700" fill="#f59e0b">0.3%</text><text x="110" y="370.9" text-anchor="end" font-size="12.5" fill="#0f172a">Australia</text><rect x="120" y="351.0" width="45.8" height="14.811428571428571" fill="#1d4ed8"/><text x="170.8" y="364.9" font-size="11" font-weight="700" fill="#1d4ed8">2.1%</text><rect x="120" y="367.9" width="98.1" height="14.811428571428571" fill="#f59e0b"/><text x="223.1" y="381.7" font-size="11" font-weight="700" fill="#f59e0b">4.5%</text></svg>